<?xml version="1.0" standalone="no"?>
<!DOCTYPE svg PUBLIC "-//W3C//DTD SVG 20010904//EN"
 "http://www.w3.org/TR/2001/REC-SVG-20010904/DTD/svg10.dtd">
<svg version="1.0" xmlns="http://www.w3.org/2000/svg"
 width="370.000000pt" height="370.000000pt" viewBox="0 0 370.000000 370.000000"
 preserveAspectRatio="xMidYMid meet">
<metadata>
Created by potrace 1.11, written by Peter Selinger 2001-2013
</metadata>
<g transform="translate(0.000000,370.000000) scale(0.100000,-0.100000)"
fill="#000000" stroke="none">
<path d="M1919 2836 c-2 -2 -40 -6 -84 -9 -44 -4 -91 -9 -105 -11 -26 -5 -122
-22 -175 -30 -16 -3 -48 -8 -70 -11 -135 -20 -289 -100 -405 -211 -85 -81
-207 -328 -256 -517 -9 -34 -20 -65 -25 -68 -5 -3 -87 -7 -181 -8 l-171 -2 15
23 c17 27 271 437 301 486 24 40 17 48 -43 55 -64 7 -153 -40 -181 -94 -11
-22 -39 -69 -63 -107 -53 -81 -256 -413 -256 -418 0 -2 -98 -169 -172 -292
l-20 -32 59 -26 58 -26 37 42 c21 24 61 77 89 119 l51 76 225 0 225 -1 3 -154
c2 -117 8 -174 23 -232 70 -262 248 -404 557 -444 107 -14 437 -6 465 11 3 2
26 6 50 10 25 3 52 8 61 11 10 3 30 6 45 9 99 14 156 33 299 104 283 138 435
256 435 338 0 12 4 25 10 28 23 14 58 180 64 307 1 15 4 29 7 32 2 3 98 7 212
8 182 3 207 2 202 -12 -5 -12 -64 -110 -134 -220 -167 -265 -199 -324 -184
-335 51 -37 200 15 227 79 7 17 45 81 83 141 61 96 254 415 303 500 10 17 41
70 69 118 28 49 51 90 51 92 0 6 -91 45 -105 45 -19 0 -73 -63 -139 -163 -58
-87 -58 -88 -95 -83 -57 8 -234 17 -369 18 l-123 2 2 179 c1 100 -2 182 -7
185 -5 4 -10 19 -11 34 -3 53 -67 165 -115 203 -7 6 -33 27 -58 47 -147 118
-361 192 -574 197 -49 1 -93 4 -96 6 -4 3 -9 3 -11 1z m247 -161 c160 -23 340
-159 413 -309 37 -76 46 -133 46 -266 l0 -105 -500 0 c-275 -1 -621 -5 -770
-9 -247 -8 -329 -9 -362 -7 -6 1 -13 9 -15 19 -4 19 57 193 92 262 92 182 237
321 384 367 37 11 183 35 306 49 30 3 56 7 57 8 6 5 309 -3 349 -9z m323 -874
l123 -1 -7 -47 c-13 -93 -16 -109 -31 -163 -22 -78 -36 -101 -96 -159 -113
-111 -321 -229 -518 -295 -163 -55 -330 -65 -530 -32 -144 23 -305 97 -374
171 -74 80 -100 153 -97 270 3 138 9 226 15 232 6 6 127 10 589 17 170 2 310
6 312 8 3 3 285 3 614 -1z"/>
</g>
</svg>
